<?xml version="1.0" standalone="no"?>
<!DOCTYPE svg PUBLIC "-//W3C//DTD SVG 20010904//EN"
 "http://www.w3.org/TR/2001/REC-SVG-20010904/DTD/svg10.dtd">
<svg version="1.0" xmlns="http://www.w3.org/2000/svg"
 width="800.000000pt" height="271.000000pt" viewBox="0 0 800.000000 271.000000"
 preserveAspectRatio="xMidYMid meet">

<g transform="translate(0.000000,271.000000) scale(0.100000,-0.100000)"
fill="#000000" stroke="none">
<path d="M0 1355 l0 -1355 4000 0 4000 0 0 1355 0 1355 -4000 0 -4000 0 0
-1355z m4009 322 c-155 -64 -225 -190 -217 -386 3 -78 9 -107 32 -158 83 -182
297 -244 501 -146 l50 24 -30 -26 c-35 -30 -112 -60 -176 -70 -57 -9 -146 8
-216 39 -101 47 -202 174 -218 276 -15 88 2 80 -156 80 l-142 0 7 68 c4 37 13
90 20 117 l12 50 159 3 160 3 35 33 c52 48 94 75 153 96 74 27 93 24 26 -3z
m-1670 -186 c-16 -32 -33 -85 -37 -117 l-7 -59 -138 -3 -137 -3 0 51 c0 28 7
82 16 121 l16 69 158 0 158 0 -29 -59z m1018 4 c7 -27 14 -79 15 -115 l3 -65
-139 -3 c-153 -3 -155 -2 -156 58 0 29 -15 72 -57 168 -4 10 29 12 158 10
l163 -3 13 -50z m1427 -14 c9 -39 16 -93 16 -120 l0 -51 -145 0 -145 0 0 29
c0 37 -35 150 -54 176 -9 11 -16 23 -16 28 0 4 74 7 164 7 l164 0 16 -69z"/>
</g>
</svg>
